# xmcd
#
# Track frame offsets:
#	150
#	16065
#	26044
#	41566
#	53545
#	65195
#	80542
#	94024
#	109146
#	125085
#
# Disc length: 1812 seconds
#
# Revision: 1
# Processed by: cddbd v1.5.2PL0 Copyright (c) Steve Scherf et al.
# Submitted via: audiograbber 1.83.01
#
DISCID=8007120a
DTITLE=Sparnetts - Is This What We Call Life?
DYEAR=2003
DGENRE=Country
TTITLE0=Ive Done Everything
TTITLE1=Is This What We Call Life?
TTITLE2=Hurtin' Words
TTITLE3=Don't Get Me Wrong
TTITLE4=Proud
TTITLE5=Sads Just The way
TTITLE6=Shattered
TTITLE7=This Time
TTITLE8=Fine Day
TTITLE9=Long Way Home
EXTD=Oz Indi       Hepburn Springs
EXTT0=
EXTT1=
EXTT2=
EXTT3=
EXTT4=
EXTT5=
EXTT6=
EXTT7=
EXTT8=
EXTT9=
PLAYORDER=
